# xmcd
# 
# Track frame offsets:
#   150
#   17729
#   36916
#   53520
#   68333
#   85954
#   104184
#   120602
#   134737
#   153663
#   172145
#   190147
#   207555
#   225770
#   247612
# 
# Disc length: 3530 seconds
# 
# Revision: 3
# Processed by: cddbd v1.5.2PL0 Copyright (c) Steve Scherf et al.
# Submitted via: Synapstar 1.0 
# 
DISCID=c90dc80f
DTITLE=Various Artist - CB60430
DYEAR=2010
DGENRE=Country
TTITLE0=McBride, Martina - Wrong Baby Wrong Baby Wrong
TTITLE1=Morgan, Craig - This Ain't Nothin'
TTITLE2=Lady Antebellum - American Honey
TTITLE3=Love and Theft - Dancing In Circles
TTITLE4=Shelton, Blake - Hillbilly Bone
TTITLE5=Ingram, Jack - Seeing Stars
TTITLE6=Jackson, Alan - It's Just That Way
TTITLE7=Bryan, Luke - Rain Is A Good Thing
TTITLE8=Swift, Taylor - Other Side Of The Door, The
TTITLE9=Worley, Darryl - Best Of Both Worlds
TTITLE10=Covington, Bucky - Gotta Be Somebody
TTITLE11=Harp, Jessica - A Woman Needs
TTITLE12=Adkins, Trace - Ala-Freakin-Baba
TTITLE13=Messina, Jo Dee - That's God
TTITLE14=Brice, Lee - Love Like Crazy
EXTD=MediaType: Karaoke CD+G Producer: Chartbuster
EXTT0=
EXTT1=
EXTT2=
EXTT3=
EXTT4=
EXTT5=
EXTT6=
EXTT7=
EXTT8=
EXTT9=
EXTT10=
EXTT11=
EXTT12=
EXTT13=
EXTT14=
PLAYORDER=
